<svg width="18" height="17" viewBox="0 0 18 17" fill="none" xmlns="http://www.w3.org/2000/svg">
<g clip-path="url(#clip0_913_1123)">
<path d="M12.5 3.84668V3.86855C12.3344 3.85605 12.1687 3.84668 12 3.84668H8C7.48438 3.84668 6.98438 3.9123 6.50625 4.03418C6.50312 3.97168 6.5 3.90918 6.5 3.84668C6.5 2.19043 7.84375 0.84668 9.5 0.84668C11.1562 0.84668 12.5 2.19043 12.5 3.84668ZM12 4.84668C12.1094 4.84668 12.2188 4.8498 12.325 4.85605C12.4563 4.86543 12.5875 4.87793 12.7188 4.89668C13.2688 4.25605 14.0875 3.84668 15 3.84668H15.3594C15.6844 3.84668 15.9219 4.15293 15.8438 4.46855L15.4125 6.19355C15.9062 6.65605 16.3094 7.21855 16.5844 7.84668H17C17.5531 7.84668 18 8.29355 18 8.84668V11.8467C18 12.3998 17.5531 12.8467 17 12.8467H16C15.7156 13.2248 15.3781 13.5623 15 13.8467V15.8467C15 16.3998 14.5531 16.8467 14 16.8467H13C12.4469 16.8467 12 16.3998 12 15.8467V14.8467H8V15.8467C8 16.3998 7.55312 16.8467 7 16.8467H6C5.44688 16.8467 5 16.3998 5 15.8467V13.8467C3.90937 13.0279 3.16563 11.7748 3.025 10.3467H2.125C0.95 10.3467 0 9.39668 0 8.22168C0 7.04668 0.95 6.09668 2.125 6.09668H2.25C2.66563 6.09668 3 6.43105 3 6.84668C3 7.2623 2.66563 7.59668 2.25 7.59668H2.125C1.78125 7.59668 1.5 7.87793 1.5 8.22168C1.5 8.56543 1.78125 8.84668 2.125 8.84668H3.1C3.47812 6.97793 4.90312 5.4873 6.73438 5.00918C7.1375 4.90293 7.5625 4.84668 8 4.84668H12ZM14 9.09668C14 8.89777 13.921 8.707 13.7803 8.56635C13.6397 8.4257 13.4489 8.34668 13.25 8.34668C13.0511 8.34668 12.8603 8.4257 12.7197 8.56635C12.579 8.707 12.5 8.89777 12.5 9.09668C12.5 9.29559 12.579 9.48636 12.7197 9.62701C12.8603 9.76766 13.0511 9.84668 13.25 9.84668C13.4489 9.84668 13.6397 9.76766 13.7803 9.62701C13.921 9.48636 14 9.29559 14 9.09668Z" fill="#8BD0EF"/>
</g>
<defs>
<clipPath id="clip0_913_1123">
<path d="M0 0.84668H18V16.8467H0V0.84668Z" fill="white"/>
</clipPath>
</defs>
</svg>
