<svg width="32" height="32" viewBox="0 0 32 32" fill="none" xmlns="http://www.w3.org/2000/svg">
<rect y="0.5" width="32" height="31" rx="15.5" fill="#BDE9FF" fill-opacity="0.4"/>
<g clip-path="url(#clip0_1234_733)">
<path d="M15.9999 5.83301C13.8903 5.83301 11.828 6.4586 10.0738 7.63067C8.31972 8.80273 6.95254 10.4686 6.14521 12.4177C5.33787 14.3668 5.12664 16.5115 5.53821 18.5806C5.94979 20.6498 6.96569 22.5504 8.45745 24.0421C9.94921 25.5339 11.8498 26.5498 13.919 26.9614C15.9881 27.373 18.1328 27.1617 20.0819 26.3544C22.031 25.5471 23.6969 24.1799 24.8689 22.4258C26.041 20.6716 26.6666 18.6093 26.6666 16.4997C26.6666 13.6707 25.5428 10.9576 23.5424 8.9572C21.542 6.95681 18.8289 5.83301 15.9999 5.83301ZM20.1333 19.953C20.0848 20.0263 20.0224 20.0893 19.9495 20.1384C19.8767 20.1874 19.7948 20.2216 19.7087 20.239C19.6226 20.2563 19.5339 20.2565 19.4477 20.2394C19.3616 20.2224 19.2796 20.1885 19.2066 20.1397L15.2733 17.473V11.6663C15.2733 11.4895 15.3435 11.32 15.4685 11.1949C15.5935 11.0699 15.7631 10.9997 15.9399 10.9997C16.1167 10.9997 16.2863 11.0699 16.4113 11.1949C16.5364 11.32 16.6066 11.4895 16.6066 11.6663V16.7663L19.9399 19.0263C20.0137 19.0743 20.0773 19.1363 20.1271 19.2089C20.1768 19.2815 20.2116 19.3633 20.2296 19.4494C20.2476 19.5356 20.2483 19.6244 20.2318 19.7108C20.2152 19.7973 20.1818 19.8796 20.1333 19.953ZM19.8999 9.98634C18.9619 9.42095 17.9127 9.06517 16.8242 8.94342C15.7358 8.82166 14.6338 8.93681 13.5941 9.28096C12.5543 9.62511 11.6013 10.1901 10.8004 10.9372C9.99954 11.6843 9.36976 12.5958 8.95429 13.6092C8.53882 14.6226 8.34748 15.7139 8.39342 16.8081C8.43935 17.9024 8.72146 18.9738 9.2204 19.9488C9.71934 20.9238 10.4233 21.7793 11.284 22.4567C12.1446 23.1341 13.1416 23.6172 14.2066 23.873L13.9999 24.9197C12.7786 24.6354 11.6334 24.0894 10.6436 23.3195C9.65375 22.5496 8.84279 21.574 8.26668 20.4602C7.69057 19.3463 7.36304 18.1207 7.3067 16.868C7.25037 15.6152 7.46656 14.3652 7.94037 13.2041C8.41417 12.0431 9.13429 10.9986 10.051 10.143C10.9678 9.28732 12.0593 8.64079 13.2502 8.24803C14.4411 7.85526 15.7031 7.72562 16.949 7.86806C18.1949 8.01049 19.395 8.4216 20.4666 9.07301L19.8999 9.98634Z" fill="#F97316"/>
</g>
<defs>
<clipPath id="clip0_1234_733">
<rect width="24" height="24" fill="white" transform="translate(4 4.5)"/>
</clipPath>
</defs>
</svg>
