<svg width="18" height="17" viewBox="0 0 18 17" fill="none" xmlns="http://www.w3.org/2000/svg">
<g clip-path="url(#clip0_913_1113)">
<path d="M17.9937 8.83105C17.9937 9.39355 17.525 9.83418 16.9937 9.83418H15.9937L16.0156 14.8404C16.0156 14.9248 16.0094 15.0092 16 15.0936V15.5967C16 16.2873 15.4406 16.8467 14.75 16.8467H14.25C14.2156 16.8467 14.1813 16.8467 14.1469 16.8436C14.1031 16.8467 14.0594 16.8467 14.0156 16.8467H13H12.25C11.5594 16.8467 11 16.2873 11 15.5967V14.8467V12.8467C11 12.2936 10.5531 11.8467 10 11.8467H8C7.44688 11.8467 7 12.2936 7 12.8467V14.8467V15.5967C7 16.2873 6.44063 16.8467 5.75 16.8467H5H4.00313C3.95625 16.8467 3.90937 16.8436 3.8625 16.8404C3.825 16.8436 3.7875 16.8467 3.75 16.8467H3.25C2.55938 16.8467 2 16.2873 2 15.5967V12.0967C2 12.0686 2 12.0373 2.00312 12.0092V9.83418H1C0.4375 9.83418 0 9.39668 0 8.83105C0 8.5498 0.09375 8.2998 0.3125 8.08105L8.325 1.09668C8.54375 0.87793 8.79375 0.84668 9.0125 0.84668C9.23125 0.84668 9.48125 0.90918 9.66875 1.06543L17.65 8.08105C17.9 8.2998 18.025 8.5498 17.9937 8.83105Z" fill="#8BD0EF"/>
</g>
<defs>
<clipPath id="clip0_913_1113">
<path d="M0 0.84668H18V16.8467H0V0.84668Z" fill="white"/>
</clipPath>
</defs>
</svg>
