<svg width="48" height="49" viewBox="0 0 48 49" fill="none" xmlns="http://www.w3.org/2000/svg">
<path d="M0 24.8467C0 11.5918 10.7452 0.84668 24 0.84668C37.2548 0.84668 48 11.5918 48 24.8467C48 38.1015 37.2548 48.8467 24 48.8467C10.7452 48.8467 0 38.1015 0 24.8467Z" fill="#DBEAFE"/>
<path d="M0 24.8467C0 11.5918 10.7452 0.84668 24 0.84668C37.2548 0.84668 48 11.5918 48 24.8467C48 38.1015 37.2548 48.8467 24 48.8467C10.7452 48.8467 0 38.1015 0 24.8467Z" stroke="#E5E7EB"/>
<path d="M15.25 14.8467H32.75V34.8467H15.25V14.8467Z" stroke="#E5E7EB"/>
<g clip-path="url(#clip0_927_251)">
<path d="M24 24.8467C25.3261 24.8467 26.5979 24.3199 27.5355 23.3822C28.4732 22.4445 29 21.1728 29 19.8467C29 18.5206 28.4732 17.2488 27.5355 16.3111C26.5979 15.3735 25.3261 14.8467 24 14.8467C22.6739 14.8467 21.4021 15.3735 20.4645 16.3111C19.5268 17.2488 19 18.5206 19 19.8467C19 21.1728 19.5268 22.4445 20.4645 23.3822C21.4021 24.3199 22.6739 24.8467 24 24.8467ZM22.2148 26.7217C18.3672 26.7217 15.25 29.8389 15.25 33.6865C15.25 34.3271 15.7695 34.8467 16.4102 34.8467H31.5898C32.2305 34.8467 32.75 34.3271 32.75 33.6865C32.75 29.8389 29.6328 26.7217 25.7852 26.7217H22.2148Z" fill="#2563EB"/>
</g>
<defs>
<clipPath id="clip0_927_251">
<path d="M15.25 14.8467H32.75V34.8467H15.25V14.8467Z" fill="white"/>
</clipPath>
</defs>
</svg>
