<svg width="20" height="17" viewBox="0 0 20 17" fill="none" xmlns="http://www.w3.org/2000/svg">
<g id="Frame">
<g clip-path="url(#clip0_913_1118)">
<path id="Vector" d="M9.99999 1.84668C9.74687 1.84668 9.49687 1.89043 9.25937 1.9748L0.493743 5.14043C0.196868 5.2498 -7.27281e-06 5.53105 -7.27281e-06 5.84668C-7.27281e-06 6.1623 0.196868 6.44355 0.493743 6.55293L2.30312 7.20605C1.79062 8.0123 1.49999 8.96543 1.49999 9.96855V10.8467C1.49999 11.7342 1.16249 12.6498 0.803118 13.3717C0.599993 13.7779 0.368743 14.1779 0.0999927 14.5467C-7.27177e-06 14.6811 -0.0281323 14.8561 0.0281177 15.0154C0.0843677 15.1748 0.215618 15.2936 0.378118 15.3342L2.37812 15.8342C2.50937 15.8686 2.64999 15.8436 2.76562 15.7717C2.88124 15.6998 2.96249 15.5811 2.98749 15.4467C3.25624 14.1092 3.12187 12.9092 2.92187 12.0498C2.82187 11.6061 2.68749 11.1529 2.49999 10.7373V9.96855C2.49999 9.0248 2.81874 8.13418 3.37187 7.42168C3.77499 6.9373 4.29687 6.54668 4.90937 6.30605L9.81562 4.37793C10.0719 4.27793 10.3625 4.40293 10.4625 4.65918C10.5625 4.91543 10.4375 5.20605 10.1812 5.30605L5.27499 7.23418C4.88749 7.3873 4.54687 7.62168 4.26874 7.90918L9.25624 9.70918C9.49374 9.79355 9.74374 9.83731 9.99687 9.83731C10.25 9.83731 10.5 9.79355 10.7375 9.70918L19.5062 6.55293C19.8031 6.44668 20 6.1623 20 5.84668C20 5.53105 19.8031 5.2498 19.5062 5.14043L10.7406 1.9748C10.5031 1.89043 10.2531 1.84668 9.99999 1.84668ZM3.99999 13.5967C3.99999 14.6998 6.68749 15.8467 9.99999 15.8467C13.3125 15.8467 16 14.6998 16 13.5967L15.5219 9.05293L11.0781 10.6592C10.7312 10.7842 10.3656 10.8467 9.99999 10.8467C9.63437 10.8467 9.26562 10.7842 8.92187 10.6592L4.47812 9.05293L3.99999 13.5967Z" fill="#8BD0EF"/>
</g>
</g>
<defs>
<clipPath id="clip0_913_1118">
<path d="M0 0.84668H20V16.8467H0V0.84668Z" fill="white"/>
</clipPath>
</defs>
</svg>
