<svg width="21" height="20" viewBox="0 0 21 20" fill="none" xmlns="http://www.w3.org/2000/svg">
<g id="Forum">
<g id="Group">
<path id="Vector" d="M0 8.035C0 5.2535 2.254 3 5.035 3H8.965C11.7465 3 14 5.254 14 8.035C14 10.815 11.746 13.0695 8.965 13.0695H6V15.5C6 15.5 0 14.285 0 8.035Z" fill="#BDE9FF"/>
<path id="Vector_2" d="M10.2385 13.9335C10.9879 14.6547 11.988 15.0569 13.028 15.0555H14.5V17C14.5 17 20 16.028 20 11.028C20 9.95979 19.5757 8.93533 18.8204 8.17995C18.0651 7.42457 17.0407 7.00013 15.9725 7H14.8675C14.954 7.328 15 7.6725 15 8.028C15 10.925 12.96 13.346 10.2385 13.9335Z" fill="#BDE9FF"/>
</g>
</g>
</svg>
