<svg width="20" height="21" viewBox="0 0 20 21" fill="none" xmlns="http://www.w3.org/2000/svg">
<g id="Frame">
<path d="M0 0.84668H20V20.8467H0V0.84668Z" stroke="#E5E7EB"/>
<path id="Vector" d="M2.5 3.34668C2.5 2.65527 1.94141 2.09668 1.25 2.09668C0.558594 2.09668 0 2.65527 0 3.34668V16.4717C0 18.1982 1.39844 19.5967 3.125 19.5967H18.75C19.4414 19.5967 20 19.0381 20 18.3467C20 17.6553 19.4414 17.0967 18.75 17.0967H3.125C2.78125 17.0967 2.5 16.8154 2.5 16.4717V3.34668ZM18.3828 6.72949C18.8711 6.24121 18.8711 5.44824 18.3828 4.95996C17.8945 4.47168 17.1016 4.47168 16.6133 4.95996L12.5 9.07715L10.2578 6.83496C9.76953 6.34668 8.97656 6.34668 8.48828 6.83496L4.11328 11.21C3.625 11.6982 3.625 12.4912 4.11328 12.9795C4.60156 13.4678 5.39453 13.4678 5.88281 12.9795L9.375 9.49121L11.6172 11.7334C12.1055 12.2217 12.8984 12.2217 13.3867 11.7334L18.3867 6.7334L18.3828 6.72949Z" fill="#F97316"/>
</g>
</svg>
