<svg width="24" height="20" viewBox="0 0 24 20" fill="none" xmlns="http://www.w3.org/2000/svg">
<g id="home">
<path id="Vector" fill-rule="evenodd" clip-rule="evenodd" d="M11.293 1.29279C11.4806 1.10532 11.7349 1 12 1C12.2652 1 12.5195 1.10532 12.707 1.29279L18.707 7.29279L20.707 9.29279C20.8892 9.48139 20.99 9.73399 20.9877 9.99619C20.9854 10.2584 20.8803 10.5092 20.6949 10.6946C20.5095 10.88 20.2586 10.9852 19.9964 10.9875C19.7342 10.9897 19.4816 10.8889 19.293 10.7068L19 10.4138V16.9998C19 17.5302 18.7893 18.0389 18.4143 18.414C18.0392 18.7891 17.5305 18.9998 17 18.9998H14C13.7348 18.9998 13.4805 18.8944 13.2929 18.7069C13.1054 18.5194 13 18.265 13 17.9998V14.9998H11V17.9998C11 18.265 10.8947 18.5194 10.7071 18.7069C10.5196 18.8944 10.2653 18.9998 10 18.9998H7.00004C6.46961 18.9998 5.9609 18.7891 5.58583 18.414C5.21075 18.0389 5.00004 17.5302 5.00004 16.9998V10.4138L4.70704 10.7068C4.51844 10.8889 4.26584 10.9897 4.00364 10.9875C3.74144 10.9852 3.49063 10.88 3.30522 10.6946C3.11981 10.5092 3.01465 10.2584 3.01237 9.99619C3.01009 9.73399 3.11088 9.48139 3.29304 9.29279L5.29304 7.29279L11.293 1.29279Z" fill="#BDE9FF"/>
</g>
</svg>
