<svg width="36" height="31" viewBox="0 0 36 31" fill="none" xmlns="http://www.w3.org/2000/svg">
<rect width="36" height="31" rx="15.5" fill="#BDE9FF" fill-opacity="0.4"/>
<path d="M12.6 26L10.7 22.8L7.1 22L7.45 18.3L5 15.5L7.45 12.7L7.1 9L10.7 8.2L12.6 5L16 6.45L19.4 5L21.3 8.2L24.9 9L24.55 12.7L27 15.5L24.55 18.3L24.9 22L21.3 22.8L19.4 26L16 24.55L12.6 26ZM16 20.5C16.2833 20.5 16.521 20.404 16.713 20.212C16.905 20.02 17.0007 19.7827 17 19.5C16.9993 19.2173 16.9033 18.98 16.712 18.788C16.5207 18.596 16.2833 18.5 16 18.5C15.7167 18.5 15.4793 18.596 15.288 18.788C15.0967 18.98 15.0007 19.2173 15 19.5C14.9993 19.7827 15.0953 20.0203 15.288 20.213C15.4807 20.4057 15.718 20.5013 16 20.5ZM15 16.5H17V10.5H15V16.5Z" fill="#F97316"/>
</svg>
