<svg width="19" height="20" viewBox="0 0 19 20" fill="none" xmlns="http://www.w3.org/2000/svg">
<g id="Investment">
<path id="Vector" d="M9.747 13.48C9.30167 13.48 8.92167 13.3217 8.607 13.005C8.29233 12.6883 8.135 12.3073 8.135 11.862C8.135 11.4167 8.29333 11.0367 8.61 10.722C8.92667 10.4073 9.308 10.25 9.754 10.25C10.2 10.25 10.58 10.4087 10.894 10.726C11.208 11.0433 11.3653 11.4243 11.366 11.869C11.3667 12.3137 11.208 12.6937 10.89 13.009C10.572 13.3243 10.191 13.4817 9.747 13.481M6.125 5.75H13.375L15.241 2H4.26L6.125 5.75ZM6.381 18H13.119C14.4057 18 15.499 17.5497 16.399 16.649C17.2997 15.7483 17.75 14.653 17.75 13.363C17.75 12.8243 17.6577 12.2997 17.473 11.789C17.2883 11.2783 17.0217 10.8133 16.673 10.394L13.631 6.75H5.869L2.827 10.394C2.47833 10.8133 2.21167 11.2783 2.027 11.789C1.84233 12.299 1.75 12.8237 1.75 13.363C1.75 14.653 2.20033 15.7483 3.101 16.649C4.00167 17.5497 5.095 18 6.381 18Z" fill="#542202"/>
</g>
</svg>
