<svg width="24" height="20" viewBox="0 0 24 20" fill="none" xmlns="http://www.w3.org/2000/svg">
<g id="profile">
<path id="Vector" d="M5.6875 15C5.6875 13 9.6875 11.9 11.6875 11.9C13.6875 11.9 17.6875 13 17.6875 15V16H5.6875M14.6875 7C14.6875 7.79565 14.3714 8.55871 13.8088 9.12132C13.2462 9.68393 12.4831 10 11.6875 10C10.8919 10 10.1288 9.68393 9.56618 9.12132C9.00357 8.55871 8.6875 7.79565 8.6875 7C8.6875 6.20435 9.00357 5.44129 9.56618 4.87868C10.1288 4.31607 10.8919 4 11.6875 4C12.4831 4 13.2462 4.31607 13.8088 4.87868C14.3714 5.44129 14.6875 6.20435 14.6875 7ZM2.6875 3V17C2.6875 17.5304 2.89821 18.0391 3.27329 18.4142C3.64836 18.7893 4.15707 19 4.6875 19H18.6875C19.2179 19 19.7266 18.7893 20.1017 18.4142C20.4768 18.0391 20.6875 17.5304 20.6875 17V3C20.6875 2.46957 20.4768 1.96086 20.1017 1.58579C19.7266 1.21071 19.2179 1 18.6875 1H4.6875C4.15707 1 3.64836 1.21071 3.27329 1.58579C2.89821 1.96086 2.6875 2.46957 2.6875 3Z" fill="#BDE9FF"/>
</g>
</svg>
