<svg width="32" height="32" viewBox="0 0 32 32" fill="none" xmlns="http://www.w3.org/2000/svg">
<rect y="0.5" width="32" height="31" rx="15.5" fill="#BDE9FF" fill-opacity="0.4"/>
<path d="M25.9375 9.75H23.5V24C23.5 24.3978 23.658 24.7794 23.9393 25.0607C24.2206 25.342 24.6022 25.5 25 25.5C25.3978 25.5 25.7794 25.342 26.0607 25.0607C26.342 24.7794 26.5 24.3978 26.5 24V10.3125C26.5 10.1633 26.4407 10.0202 26.3352 9.91475C26.2298 9.80926 26.0867 9.75 25.9375 9.75Z" fill="#F97316"/>
<path d="M24.2102 26.8945C23.5757 26.7205 23.0159 26.3431 22.6167 25.8202C22.2174 25.2973 22.0008 24.6579 22 24V6.5625C22 6.41332 21.9407 6.27024 21.8352 6.16475C21.7298 6.05926 21.5867 6 21.4375 6H6.0625C5.91332 6 5.77024 6.05926 5.66475 6.16475C5.55926 6.27024 5.5 6.41332 5.5 6.5625V24.375C5.5 25.0712 5.77656 25.7389 6.26884 26.2312C6.76113 26.7234 7.42881 27 8.125 27H24.1961C24.2094 27.0005 24.2224 26.996 24.2326 26.9875C24.2427 26.9789 24.2494 26.9669 24.2511 26.9537C24.2529 26.9405 24.2497 26.9271 24.2421 26.9162C24.2345 26.9052 24.2231 26.8975 24.2102 26.8945ZM8.5 14.25V9.75H13V14.25H8.5ZM19 23.25H8.5V21.75H19V23.25ZM19 20.25H8.5V18.75H19V20.25ZM19 17.25H8.5V15.75H19V17.25ZM19 14.25H14.5V12.75H19V14.25ZM19 11.25H14.5V9.75H19V11.25Z" fill="#F97316"/>
</svg>
