<svg width="24" height="25" viewBox="0 0 24 25" fill="none" xmlns="http://www.w3.org/2000/svg">
<path d="M21.9375 5.75H19.5V20C19.5 20.3978 19.658 20.7794 19.9393 21.0607C20.2206 21.342 20.6022 21.5 21 21.5C21.3978 21.5 21.7794 21.342 22.0607 21.0607C22.342 20.7794 22.5 20.3978 22.5 20V6.3125C22.5 6.16332 22.4407 6.02024 22.3352 5.91475C22.2298 5.80926 22.0867 5.75 21.9375 5.75Z" fill="#F97316"/>
<path d="M20.2102 22.8945C19.5757 22.7205 19.0159 22.3431 18.6167 21.8202C18.2174 21.2973 18.0008 20.6579 18 20V2.5625C18 2.41332 17.9407 2.27024 17.8352 2.16475C17.7298 2.05926 17.5867 2 17.4375 2H2.0625C1.91332 2 1.77024 2.05926 1.66475 2.16475C1.55926 2.27024 1.5 2.41332 1.5 2.5625V20.375C1.5 21.0712 1.77656 21.7389 2.26884 22.2312C2.76113 22.7234 3.42881 23 4.125 23H20.1961C20.2094 23.0005 20.2224 22.996 20.2326 22.9875C20.2427 22.9789 20.2494 22.9669 20.2511 22.9537C20.2529 22.9405 20.2497 22.9271 20.2421 22.9162C20.2345 22.9052 20.2231 22.8975 20.2102 22.8945ZM4.5 10.25V5.75H9V10.25H4.5ZM15 19.25H4.5V17.75H15V19.25ZM15 16.25H4.5V14.75H15V16.25ZM15 13.25H4.5V11.75H15V13.25ZM15 10.25H10.5V8.75H15V10.25ZM15 7.25H10.5V5.75H15V7.25Z" fill="#F97316"/>
</svg>
